<?xml version="1.0" encoding="UTF-8" standalone="no"?>
<svg
   xmlns:dc="http://purl.org/dc/elements/1.1/"
   xmlns:cc="http://creativecommons.org/ns#"
   xmlns:rdf="http://www.w3.org/1999/02/22-rdf-syntax-ns#"
   xmlns:svg="http://www.w3.org/2000/svg"
   xmlns="http://www.w3.org/2000/svg"
   xmlns:sodipodi="http://sodipodi.sourceforge.net/DTD/sodipodi-0.dtd"
   xmlns:inkscape="http://www.inkscape.org/namespaces/inkscape"
   width="350mm"
   height="350mm"
   viewBox="0 0 350 350"
   version="1.1"
   id="SVGRoot"
   sodipodi:docname="logo.svg"
   inkscape:version="1.0.1 (0767f8302a, 2020-10-17)">
  <defs
     id="defs3011">
    <inkscape:path-effect
       effect="skeletal"
       id="path-effect390"
       is_visible="true"
       lpeversion="1"
       pattern="M 0,5 C 0,2.24 2.24,0 5,0 7.76,0 10,2.24 10,5 10,7.76 7.76,10 5,10 2.24,10 0,7.76 0,5 Z"
       copytype="single_stretched"
       prop_scale="1"
       scale_y_rel="false"
       spacing="0"
       normal_offset="0"
       tang_offset="0"
       prop_units="false"
       vertical_pattern="false"
       hide_knot="false"
       fuse_tolerance="0" />
    <inkscape:path-effect
       effect="skeletal"
       id="path-effect408"
       is_visible="true"
       lpeversion="1"
       pattern="M 0,5 C 0,2.24 2.24,0 5,0 7.76,0 10,2.24 10,5 10,7.76 7.76,10 5,10 2.24,10 0,7.76 0,5 Z"
       copytype="single_stretched"
       prop_scale="1"
       scale_y_rel="false"
       spacing="0"
       normal_offset="0"
       tang_offset="0"
       prop_units="false"
       vertical_pattern="false"
       hide_knot="false"
       fuse_tolerance="0" />
    <inkscape:path-effect
       effect="skeletal"
       id="path-effect440"
       is_visible="true"
       lpeversion="1"
       pattern="M 0,5 C 0,2.24 2.24,0 5,0 7.76,0 10,2.24 10,5 10,7.76 7.76,10 5,10 2.24,10 0,7.76 0,5 Z"
       copytype="single_stretched"
       prop_scale="1"
       scale_y_rel="false"
       spacing="0"
       normal_offset="0"
       tang_offset="0"
       prop_units="false"
       vertical_pattern="false"
       hide_knot="false"
       fuse_tolerance="0" />
    <inkscape:path-effect
       effect="skeletal"
       id="path-effect486"
       is_visible="true"
       lpeversion="1"
       pattern="M 0,5 C 0,2.24 2.24,0 5,0 7.76,0 10,2.24 10,5 10,7.76 7.76,10 5,10 2.24,10 0,7.76 0,5 Z"
       copytype="single_stretched"
       prop_scale="1"
       scale_y_rel="false"
       spacing="0"
       normal_offset="0"
       tang_offset="0"
       prop_units="false"
       vertical_pattern="false"
       hide_knot="false"
       fuse_tolerance="0" />
    <inkscape:path-effect
       effect="skeletal"
       id="path-effect490"
       is_visible="true"
       lpeversion="1"
       pattern="M 0,5 C 0,2.24 2.24,0 5,0 7.76,0 10,2.24 10,5 10,7.76 7.76,10 5,10 2.24,10 0,7.76 0,5 Z"
       copytype="single_stretched"
       prop_scale="1"
       scale_y_rel="false"
       spacing="0"
       normal_offset="0"
       tang_offset="0"
       prop_units="false"
       vertical_pattern="false"
       hide_knot="false"
       fuse_tolerance="0" />
  </defs>
  <sodipodi:namedview
     id="base"
     pagecolor="#ffffff"
     bordercolor="#666666"
     borderopacity="1.0"
     inkscape:pageopacity="0.0"
     inkscape:pageshadow="2"
     inkscape:zoom="0.49497475"
     inkscape:cx="592.47905"
     inkscape:cy="548.33265"
     inkscape:document-units="mm"
     inkscape:current-layer="layer1"
     inkscape:document-rotation="0"
     showgrid="false"
     inkscape:window-width="1439"
     inkscape:window-height="1023"
     inkscape:window-x="67"
     inkscape:window-y="27"
     inkscape:window-maximized="0" />
  <metadata
     id="metadata3014">
    <rdf:RDF>
      <cc:Work
         rdf:about="">
        <dc:format>image/svg+xml</dc:format>
        <dc:type
           rdf:resource="http://purl.org/dc/dcmitype/StillImage" />
        <dc:title></dc:title>
      </cc:Work>
    </rdf:RDF>
  </metadata>
  <g
     inkscape:groupmode="layer"
     id="layer2"
     inkscape:label="Layer 2"
     style="display:inline"
     transform="translate(8.2470446,-68.735344)">
    <rect
       style="display:inline;fill:#ffffff;fill-opacity:1;stroke-width:0.287211"
       id="rect4267"
       width="350"
       height="350"
       x="-8.2470446"
       y="68.735344" />
  </g>
  <g
     inkscape:label="Layer 1"
     inkscape:groupmode="layer"
     id="layer1"
     style="display:inline"
     transform="translate(8.2470446,-68.735344)">
    <g
       id="g4247"
       transform="translate(11.349557,18.227476)">
      <circle
         style="fill:#66ff00;fill-opacity:1;stroke:none;stroke-width:0.132422;stroke-miterlimit:4;stroke-dasharray:none;stroke-opacity:1"
         id="path4088"
         cx="103.24937"
         cy="150.52376"
         r="51.068329" />
      <circle
         style="fill:#217844;fill-opacity:1;stroke:none;stroke-width:0.0618808;stroke-miterlimit:4;stroke-dasharray:none;stroke-opacity:1"
         id="path4090"
         cx="171.12073"
         cy="217.51146"
         r="34.205326" />
      <circle
         style="fill:#44aa00;fill-opacity:1;stroke:none;stroke-width:0.0618808;stroke-miterlimit:4;stroke-dasharray:none;stroke-opacity:1"
         id="path4096"
         cx="227.95595"
         cy="188.96416"
         r="42.904312" />
      <circle
         style="fill:#165016;fill-opacity:1;stroke:none;stroke-width:0.0618808;stroke-miterlimit:4;stroke-dasharray:none;stroke-opacity:1"
         id="path4098"
         cx="178.45407"
         cy="141.50993"
         r="48.395096" />
      <ellipse
         style="fill:#00aa00;fill-opacity:1;stroke:none;stroke-width:0.0724824;stroke-miterlimit:4;stroke-dasharray:none;stroke-opacity:1"
         id="path4072-3"
         cx="91.86412"
         cy="211.16304"
         rx="51.917583"
         ry="49.943027" />
      <ellipse
         style="fill:#80ff80;fill-opacity:1;stroke:none;stroke-width:0.0659739;stroke-miterlimit:4;stroke-dasharray:none;stroke-opacity:1"
         id="path4092-6"
         cx="146.4438"
         cy="174.99907"
         rx="36.58432"
         ry="35.798374" />
      <g
         id="g4079"
         transform="matrix(0.2335135,0,0,0.2335135,-1766.715,614.11302)">
        <path
           style="fill:#000000;stroke:none;stroke-width:0.264583px;stroke-linecap:butt;stroke-linejoin:miter;stroke-opacity:1"
           d="m 8215.3423,-1097.206 c -1.3822,-0.2913 11.6743,-51.5768 14.6375,-135.0916 0,0 0,0 0,0 1.1513,-32.4808 0.1972,-71.0242 -6.7839,-111.296 -5.2501,-30.3103 -14.0499,-62.0494 -27.5796,-93.5042 -11.9454,-27.7894 -27.4112,-54.9883 -46.0607,-81.3814 -0.5886,-0.8331 -1.1802,-1.6651 -1.7746,-2.496 -18.733,-26.1869 -39.5577,-50.2249 -60.467,-72.2337 -25.2441,-26.5677 -51.7623,-51.3715 -75.9469,-73.3358 -43.6847,-39.6703 -88.1224,-77.9455 -131.8071,-117.6158 -31.8303,-28.9714 -49.5114,-46.5271 -48.8536,-47.246 0.6578,-0.7189 19.5434,15.4736 52.3545,43.2588 21.688,18.3659 90.838,76.4134 134.2695,114.9607 24.5461,21.7838 51.3778,46.4804 77.0506,73.2291 21.2517,22.1393 42.4288,46.4747 61.5317,73.164 0.606,0.8466 1.2091,1.6945 1.8093,2.5436 19.0235,26.9161 34.7612,54.7836 46.8682,83.3204 13.7021,32.317 22.4423,64.849 27.457,95.8545 6.6579,41.1998 7.0064,80.2812 5.1218,113.1119 0,0 0,0 0,0 -4.8387,84.3372 -20.4445,135.0488 -21.8267,134.7575 z"
           id="path388"
           inkscape:path-effect="#path-effect390"
           inkscape:original-d="m 8215.3423,-1097.206 c 83.1937,-394.7118 -119.5245,-491.6448 -384.6359,-734.2005" />
        <path
           style="fill:#000000;stroke:none;stroke-width:0.264583px;stroke-linecap:butt;stroke-linejoin:miter;stroke-opacity:1"
           d="m 8140.0525,-1536.167 c -1.2546,0.8172 -24.5068,-24.4542 -37.5897,-74.9606 0,0 0,-10e-5 0,-10e-5 -5.169,-20.0057 -7.7256,-44.0681 -4.0854,-69.9315 2.9432,-20.7775 9.6839,-41.9069 20.0723,-62.6936 4.2203,-8.4469 8.9633,-16.7427 14.1843,-24.9129 6.8072,-10.6522 14.1727,-20.6921 21.7399,-30.1099 14.1788,-17.6539 29.395,-33.5803 43.7383,-47.5765 14.9656,-14.606 31.2252,-29.1969 43.7853,-40.466 16.0718,-14.4274 25.3885,-22.6889 36.2041,-33.6513 5.5688,-5.6468 9.5126,-10.0308 12.9751,-14.3396 6.2478,-7.7958 8.5767,-12.7884 9.1545,-12.5633 0.5566,0.2168 -0.6413,5.8144 -6.2912,14.6174 -3.0246,4.7246 -6.8246,9.7454 -12.0391,15.7888 -9.7258,11.2769 -19.8366,21.2354 -34.8514,35.69 -11.7342,11.3013 -28.4105,27.1106 -42.5087,41.3904 -13.9142,14.0959 -28.7201,29.9699 -42.437,47.2777 -7.3237,9.2452 -14.4579,19.0285 -21.0458,29.3281 -5.0542,7.9018 -9.6444,15.8844 -13.7295,23.9838 -10.0378,19.9071 -16.6981,39.9422 -19.7944,59.6044 -3.8695,24.4218 -2.0284,47.4445 2.2379,66.8125 0,0 0,10e-5 0,10e-5 10.7669,49.0218 31.5351,75.8949 30.2805,76.7121 z"
           id="path406"
           inkscape:path-effect="#path-effect408"
           inkscape:original-d="m 8140.0525,-1536.167 c -138.3504,-212.3975 133.4545,-342.6002 160.1787,-411.2053" />
        <path
           style="fill:#000000;stroke:none;stroke-width:0.264583px;stroke-linecap:butt;stroke-linejoin:miter;stroke-opacity:1"
           d="m 8205.8215,-1431.2698 c -0.9109,0.1837 -3.9387,-8.5158 -6.0189,-24.3321 -2.093,-15.9143 -2.8985,-38.711 1.9818,-65.8296 4.8126,-26.6805 14.0234,-53.8149 27.4515,-83.8875 3e-4,-8e-4 0.3903,-0.8736 0.3907,-0.8744 12.0341,-26.8805 28.8738,-58.9946 39.2018,-79.5608 12.9801,-25.8697 20.4315,-42.1321 27.4123,-58.5655 6.1186,-14.4037 9.3708,-22.8439 10.2598,-22.5772 0.889,0.2667 -0.7112,9.2508 -5.4932,24.339 -5.1139,16.1349 -12.5964,35.1575 -24.3603,60.5731 -10.9887,23.7618 -24.8229,50.6634 -37.893,79.8763 4e-4,-10e-4 -0.3858,0.8636 -0.3854,0.8626 -13.2648,29.7796 -22.5824,55.6937 -28.0606,81.4857 -5.5443,26.0438 -6.0061,48.0044 -5.4368,63.7314 0.564,15.5809 1.8612,24.5753 0.9503,24.759 z"
           id="path438"
           inkscape:path-effect="#path-effect440"
           inkscape:original-d="m 8205.8215,-1431.2698 c -25.3222,-125.5454 66.3779,-221.2793 100.679,-335.6271" />
        <path
           style="fill:#000000;stroke:none;stroke-width:0.264583px;stroke-linecap:butt;stroke-linejoin:miter;stroke-opacity:1"
           d="m 8257.0181,-1642.8521 c 0.1067,-1.3188 23.8043,1.253 60.6874,-5.8686 16.0703,-3.0991 34.1576,-8.2414 53.5575,-16.5756 0,0 0,0 0,0 30.0826,-12.8998 59.0845,-31.6006 90.4499,-56.5394 1.093,-0.869 2.1811,-1.7394 3.2643,-2.6106 32.1691,-25.904 60.5128,-52.5487 85.8358,-74.2402 16.3733,-14.0288 30.1938,-25.1177 43.4788,-34.7581 27.1796,-19.7266 45.7286,-28.3211 46.3351,-27.253 0.6065,1.0681 -16.6008,11.5117 -42.4141,32.3724 -12.8186,10.3609 -25.6589,21.4956 -41.7554,36.0513 -21.6119,19.5479 -55.73,51.8213 -85.205,75.6114 -1.0967,0.8862 -2.1994,1.7713 -3.308,2.6548 -31.7449,25.3006 -62.0327,44.2383 -93.3108,56.8264 0,0 0,0 0,0 -20.2327,8.1277 -39.128,12.7953 -55.792,15.2082 -38.2805,5.5339 -61.9302,0.4398 -61.8235,-0.879 z"
           id="path484"
           inkscape:path-effect="#path-effect486"
           inkscape:original-d="m 8257.0181,-1642.8521 c 173.3572,14.0231 261.6978,-148.6141 383.6088,-217.8455" />
        <path
           style="fill:#000000;stroke:none;stroke-width:0.264583px;stroke-linecap:butt;stroke-linejoin:miter;stroke-opacity:1"
           d="m 8198.5682,-1837.7778 c -0.8553,-0.376 -0.1988,-3.7292 0.7668,-9.334 0.9817,-5.698 2.1394,-13.4265 2.0455,-23.0005 -0.081,-9.4484 -1.3026,-19.0931 -3.4366,-30.7098 0,-2e-4 -0.033,-0.1821 -0.033,-0.1824 -2.1268,-11.4723 -4.6094,-22.3328 -6.244,-31.8669 -1.7077,-9.904 -2.4338,-17.5772 -2.3927,-23.6624 0.039,-5.8119 0.7927,-9.124 1.6894,-9.1773 0.9193,-0.055 1.9087,3.122 3.3205,8.5655 1.4119,5.4435 3.3687,13.1548 5.8245,22.4364 2.2741,8.5608 5.5315,20.6072 7.6337,31.8763 0,-10e-5 0.035,0.1896 0.035,0.1894 2.2272,11.9292 3.0723,22.7138 2.3118,32.836 -1.6181,21.2999 -10.2092,32.6064 -11.5208,32.0297 z"
           id="path488"
           inkscape:path-effect="#path-effect490"
           inkscape:original-d="m 8198.5682,-1837.7778 c 18.9588,-43.1189 -5.0694,-85.279 -7.6051,-127.9333" />
      </g>
    </g>
  </g>
</svg>
